<svg viewBox="0 0 24 24" fill="none" xmlns="http://www.w3.org/2000/svg">
    <rect width="24" height="24" fill="#EF0075"/>
    <path d="M12 3C9.555 3 9.24975 3.01125 8.28975 3.054C7.33125 3.099 6.67875 3.24975 6.105 3.4725C5.51325 3.702 5.01075 4.01025 4.5105 4.5105C4.01025 5.01075 3.70125 5.5125 3.4725 6.105C3.24975 6.67875 3.09825 7.33125 3.054 8.28975C3.009 9.24975 3 9.555 3 12C3 14.445 3.01125 14.7503 3.054 15.7103C3.099 16.668 3.24975 17.3213 3.4725 17.895C3.702 18.486 4.01025 18.9893 4.5105 19.4895C5.01075 19.989 5.5125 20.2988 6.105 20.5275C6.6795 20.7495 7.332 20.9017 8.28975 20.946C9.24975 20.991 9.555 21 12 21C14.445 21 14.7503 20.9887 15.7103 20.946C16.668 20.901 17.3213 20.7495 17.895 20.5275C18.486 20.298 18.9893 19.989 19.4895 19.4895C19.989 18.9893 20.2988 18.4883 20.5275 17.895C20.7495 17.3213 20.9017 16.668 20.946 15.7103C20.991 14.7503 21 14.445 21 12C21 9.555 20.9887 9.24975 20.946 8.28975C20.901 7.332 20.7495 6.678 20.5275 6.105C20.298 5.51325 19.989 5.01075 19.4895 4.5105C18.9893 4.01025 18.4883 3.70125 17.895 3.4725C17.3213 3.24975 16.668 3.09825 15.7103 3.054C14.7503 3.009 14.445 3 12 3ZM12 4.62C14.4023 4.62 14.6888 4.632 15.6375 4.67325C16.515 4.7145 16.9912 4.86 17.3077 4.9845C17.7292 5.14725 18.0277 5.34225 18.3442 5.6565C18.6585 5.9715 18.8535 6.27075 19.0162 6.69225C19.1392 7.00875 19.2862 7.485 19.326 8.3625C19.3687 9.312 19.3785 9.597 19.3785 12C19.3785 14.403 19.3672 14.6888 19.323 15.6375C19.2772 16.515 19.131 16.9912 19.0073 17.3077C18.8393 17.7292 18.648 18.0277 18.333 18.3442C18.0188 18.6585 17.715 18.8535 17.298 19.0162C16.983 19.1392 16.4993 19.2862 15.6218 19.326C14.6663 19.3687 14.385 19.3785 11.9775 19.3785C9.56925 19.3785 9.288 19.3672 8.33325 19.323C7.455 19.2772 6.97125 19.131 6.65625 19.0073C6.2295 18.8393 5.93625 18.648 5.622 18.333C5.30625 18.0188 5.1045 17.715 4.947 17.298C4.82325 16.983 4.67775 16.4993 4.632 15.6218C4.59825 14.6768 4.58625 14.385 4.58625 11.9887C4.58625 9.59175 4.59825 9.29925 4.632 8.343C4.67775 7.4655 4.82325 6.9825 4.947 6.6675C5.1045 6.24 5.30625 5.9475 5.622 5.63175C5.93625 5.3175 6.2295 5.115 6.65625 4.95825C6.97125 4.83375 7.4445 4.6875 8.322 4.6425C9.27825 4.60875 9.5595 4.5975 11.9662 4.5975L12 4.62ZM12 7.3785C9.44625 7.3785 7.3785 9.4485 7.3785 12C7.3785 14.5537 9.4485 16.6215 12 16.6215C14.5537 16.6215 16.6215 14.5515 16.6215 12C16.6215 9.44625 14.5515 7.3785 12 7.3785ZM12 15C10.3425 15 9 13.6575 9 12C9 10.3425 10.3425 9 12 9C13.6575 9 15 10.3425 15 12C15 13.6575 13.6575 15 12 15ZM17.8845 7.19625C17.8845 7.7925 17.4 8.27625 16.8045 8.27625C16.2083 8.27625 15.7245 7.79175 15.7245 7.19625C15.7245 6.60075 16.209 6.117 16.8045 6.117C17.3993 6.11625 17.8845 6.60075 17.8845 7.19625Z" fill="white"/>
</svg>
